<svg width="48" height="48" viewBox="0 0 48 48" fill="none" xmlns="http://www.w3.org/2000/svg">
    <circle cx="24" cy="24" r="24" fill="white"/>
    <path d="M17.4375 32.3906C17.4219 32.3646 17.4036 32.3229 17.3828 32.2656C17.1953 31.7865 17.0417 31.4453 16.9219 31.2422C18.6458 31.0391 19.9714 30.7891 20.8984 30.4922C21.8099 30.1953 22.4609 29.8125 22.8516 29.3438C23.2057 28.9219 23.4089 28.349 23.4609 27.625H24.6875C24.6146 28.1667 24.5234 28.6068 24.4141 28.9453C26.9245 29.8255 29.0026 30.5807 30.6484 31.2109L30.1094 32.2578C27.7083 31.2578 25.6562 30.4479 23.9531 29.8281C23.5052 30.4688 22.7786 30.987 21.7734 31.3828C20.763 31.7839 19.3177 32.1198 17.4375 32.3906ZM18.5312 29.6953V25.9688H29.4844V29.6016H28.3047V26.8906H19.7188V29.6953H18.5312ZM19.5312 24.9062V21.7656H28.4453V24.9062H19.5312ZM20.7031 24.0312H27.2656V22.6406H20.7031V24.0312ZM17.3203 22.3906V19.8125H20.7344C20.1302 19.3177 19.4401 18.7943 18.6641 18.2422L19.6172 17.7812C19.6953 17.8333 19.8255 17.9245 20.0078 18.0547C20.9141 18.6953 21.5234 19.1406 21.8359 19.3906L21.0938 19.8125H23.3906V17.5469H24.5938V19.8125H26.7422L26.0703 19.3906C27.1016 18.6979 27.8672 18.1615 28.3672 17.7812L29.3516 18.2578C28.7266 18.7214 28 19.2396 27.1719 19.8125H30.6641V22.3906H29.4844V20.7344H18.5V22.3906H17.3203Z" fill="#666666"/>
</svg>
